PathFileType	4	(X/Y/Z)	C:\Users\Basilio\Documents\Thesis Gigler\squatting_fais\c3dfiles\040\SJ_pre2\markers_experimental.trc
DataRate	CameraRate	NumFrames	NumMarkers	Units	OrigDataRate	OrigDataStartFrame	OrigNumFrames
200.000000	200.000000	4	64	mm	200.000000	332	1328
Frame#	Time	FHD			LBHD			RBHD			C7			T10			CLAV			LSHO			LUUPA			LMUPA			LDUPA			LLEP			LMEP			LRAD			LUL			LRFIN			RSHO			RUPA1			RMUPA			RDUPA			RLEP			RMEP			RRAD			RUL			RUFIN			RASI			USACR			LSACR			RSACR			LTHI1			LTHI2			LTHI3			LTHI4			LLFC			LMFC			LTIB1			LTIB2			LTIB3			LTIB4			LLMAL			LMMAL			LHEE			LMT1			LMT2			LMT5			RTHI			RTHI2			RTHI3			RTHI4			RLFC			RMFC			RTIB1			RTIB2			RTIB3			RTIB4			RLMAL			RMMAL			RHEE			RMT1			RMT2			RMT5			LASI			*61			*62			*63			
		X1	Y1	Z1	X2	Y2	Z2	X3	Y3	Z3	X4	Y4	Z4	X5	Y5	Z5	X6	Y6	Z6	X7	Y7	Z7	X8	Y8	Z8	X9	Y9	Z9	X10	Y10	Z10	X11	Y11	Z11	X12	Y12	Z12	X13	Y13	Z13	X14	Y14	Z14	X15	Y15	Z15	X16	Y16	Z16	X17	Y17	Z17	X18	Y18	Z18	X19	Y19	Z19	X20	Y20	Z20	X21	Y21	Z21	X22	Y22	Z22	X23	Y23	Z23	X24	Y24	Z24	X25	Y25	Z25	X26	Y26	Z26	X27	Y27	Z27	X28	Y28	Z28	X29	Y29	Z29	X30	Y30	Z30	X31	Y31	Z31	X32	Y32	Z32	X33	Y33	Z33	X34	Y34	Z34	X35	Y35	Z35	X36	Y36	Z36	X37	Y37	Z37	X38	Y38	Z38	X39	Y39	Z39	X40	Y40	Z40	X41	Y41	Z41	X42	Y42	Z42	X43	Y43	Z43	X44	Y44	Z44	X45	Y45	Z45	X46	Y46	Z46	X47	Y47	Z47	X48	Y48	Z48	X49	Y49	Z49	X50	Y50	Z50	X51	Y51	Z51	X52	Y52	Z52	X53	Y53	Z53	X54	Y54	Z54	X55	Y55	Z55	X56	Y56	Z56	X57	Y57	Z57	X58	Y58	Z58	X59	Y59	Z59	X60	Y60	Z60	X61	Y61	Z61	X62	Y62	Z62	X63	Y63	Z63	X64	Y64	Z64	

333	1.66	28.07229804992676	1063.63037109375	-883.4071044921877	-102.0941314697266	1028.179077148438	-923.3394775390627	-157.4667358398438	996.520935058594	-790.741149902344	-181.4194641113282	931.929870605469	-844.8389892578127	-427.2845153808595	745.1708984375001	-853.6102294921877	-119.6043243408203	790.357116699219	-843.1641845703127	-92.31520843505861	838.3479614257815	-1013.151977539063	-203.8888244628907	776.5921630859377	-1180.750610351563	-234.4056701660157	738.8081665039064	-1172.394409179688	-251.9637756347657	757.1601562500001	-1227.185668945313	-305.2901916503907	745.0161743164064	-1270.237915039063	-344.8458251953126	807.027770996094	-1252.388793945313	-526.2536010742189	656.7473144531251	-1087.84130859375	-507.0311279296876	593.9870605468751	-1123.856567382813	-484.1082458496095	640.8265380859376	-1037.4453125	-126.1017150878907	826.2490234375002	-671.8671264648439	-256.5736389160157	837.3917236328127	-520.9546508789064	-281.3177490234376	794.219177246094	-513.3695678710939	-308.1488342285157	830.419616699219	-474.2460327148439	-366.9581604003907	806.2756347656252	-436.0272216796876	-417.9808654785157	858.4145507812502	-483.722381591797	-503.532196044922	651.6540527343751	-633.7650146484376	-508.2397460937501	597.8141479492189	-579.4262084960939	-450.1008300781251	620.8213500976564	-666.8049926757814	nan	nan	nan	-561.5651855468751	654.0383911132814	-858.583435058594	-586.1143188476564	635.4281005859376	-889.886901855469	-595.0280151367189	633.7399291992189	-836.3583984375002	-392.9308166503907	449.5379638671876	-1098.270263671875	-312.5303344726563	472.7799377441407	-1118.100219726563	-300.0618591308594	516.3002929687501	-1105.771362304688	-265.7200927734376	436.3232421875001	-1125.79345703125	-151.1228790283203	425.7022399902345	-1141.175659179688	-131.3628540039063	377.3738708496094	-1016.703796386719	-210.9072723388672	232.4737396240235	-1113.833129882813	-297.0992431640626	250.5034942626954	-1137.715942382813	-266.3965454101563	218.9586486816407	-1130.626708984375	-301.5240478515626	148.1497192382813	-1102.914916992188	-405.2354125976564	105.6765365600586	-1106.520874023438	-355.1381835937501	98.03752136230472	-1032.658081054688	-466.787078857422	49.4057960510254	-1064.378540039063	-245.4781646728516	56.58524703979494	-1091.695556640625	-257.5658569335938	55.40332412719728	-1136.705444335938	-313.1815490722657	32.95672225952149	-1175.578491210938	-391.795623779297	470.9737243652345	-624.6507568359376	-328.3882141113282	487.9817810058595	-610.4580078125001	-315.4655456542969	517.6337890625001	-620.7144165039064	-265.5532836914063	433.2413330078126	-594.2605590820314	-174.9343872070313	407.7435302734376	-575.5927734375001	-141.706787109375	388.2578735351564	-709.5892944335939	-216.1354370117188	244.2693176269532	-608.0951538085939	-326.3267211914063	232.2717742919922	-603.5113525390626	-291.1865234375001	201.8353424072266	-607.7908325195314	-302.5541992187501	155.1729888916016	-641.1323852539064	-414.7684631347657	101.0659103393555	-636.8481445312501	-374.8434448242188	98.3752365112305	-718.6838989257814	-475.993133544922	50.49221420288087	-697.7290039062501	-257.8584289550782	54.2517433166504	-644.4107666015626	-271.9604492187501	57.78399658203126	-606.9331665039064	-325.8220520019532	36.19146728515626	-565.7095947265626	-411.317352294922	547.6314697265626	-964.767272949219	nan	nan	nan	nan	nan	nan	nan	nan	nan	
334	1.665	28.01785278320313	1064.5859375	-883.803649902344	-102.1952896118164	1028.871459960938	-923.5864257812502	-157.7465972900391	997.269470214844	-790.9924926757815	-181.5137786865235	932.6025390625002	-845.2297363281252	-427.1361083984376	745.6510009765626	-853.7988281250002	-119.6316223144532	791.0493774414065	-843.2373657226565	-92.40880584716798	839.054382324219	-1013.233642578125	-203.9649200439454	777.3691406250002	-1180.997192382813	-234.5196075439454	739.6019897460939	-1172.591430664063	-251.6739959716797	757.8436279296876	-1227.523559570313	-305.2907714843751	745.5397338867189	-1270.3896484375	-345.0410156250001	807.732360839844	-1252.544921875	-526.2355957031251	657.4273071289064	-1087.86328125	-507.0202941894532	594.5881958007814	-1123.953002929688	-484.1943969726564	641.3825683593751	-1037.420532226563	-126.1944274902344	827.3723754882815	-671.9381713867189	-256.4638671875001	838.1001586914065	-521.2186279296876	-281.2279663085938	795.105407714844	-513.5875854492189	-308.0066223144532	831.230651855469	-474.1858520507814	-366.6919555664063	806.9290771484377	-436.1035156250001	-417.8609008789064	858.880065917969	-483.744842529297	-504.1001586914064	652.1814575195314	-634.2660522460939	-507.5052795410157	598.2009887695314	-579.6673583984376	-449.5975036621095	621.1502075195314	-667.0415649414064	nan	nan	nan	-561.4744873046876	654.5822753906251	-858.5784912109377	-584.7407226562501	635.5369262695314	-889.3902587890627	-594.9053344726564	634.2016601562501	-836.418640136719	-392.9523010253907	449.7383117675782	-1098.40234375	-312.6839599609376	473.0354309082032	-1118.408325195313	-300.1195373535157	516.5133056640626	-1106.146606445313	-266.1465759277344	436.7457885742189	-1126.120727539063	-151.3402404785157	425.8189697265626	-1141.695922851563	-131.4441375732422	377.6246948242188	-1017.169311523438	-210.9411010742188	232.6316070556641	-1114.1513671875	-297.2773742675782	250.5989685058594	-1137.91650390625	-266.6430053710938	218.5658721923829	-1130.969970703125	-301.5574035644532	148.272689819336	-1102.977172851563	-405.2512817382814	105.658073425293	-1106.550415039063	-355.2283630371094	98.20339965820315	-1032.642456054688	-466.7896423339845	49.44984817504884	-1064.385009765625	-245.4810943603516	56.57390213012697	-1091.659423828125	-257.5455932617188	55.42541885375978	-1136.710693359375	-313.2440490722657	32.92849349975587	-1175.579345703125	-391.6067504882814	471.3920898437501	-624.6289672851564	-327.9513244628907	488.1491699218751	-610.5844726562501	-315.1538391113282	517.7228393554689	-621.1068115234376	-265.1549072265626	433.555145263672	-594.5167846679689	-174.5912017822266	407.8314514160157	-575.9107666015626	-141.7742309570313	388.0282592773439	-709.7651367187501	-215.9446105957032	244.3345642089844	-608.2233276367189	-326.2380065917969	232.4322357177735	-603.7030029296876	-291.0435791015626	202.0081329345704	-607.9656982421876	-302.3644714355469	155.1599426269532	-641.2072753906251	-414.7470703125001	101.345199584961	-636.9761352539064	-374.7324218750001	98.34300231933597	-718.7347412109376	-476.0155029296876	50.55858612060548	-697.7646484375001	-257.7593688964844	54.19165420532228	-644.3422851562501	-272.0616149902344	57.70603561401369	-607.0874633789064	-325.8013305664063	36.26197814941407	-565.6823730468751	-411.138641357422	547.9127807617189	-965.0130615234377	nan	nan	nan	nan	nan	nan	nan	nan	nan	
335	1.67	27.90251731872559	1064.950073242188	-884.038513183594	-102.2698135375977	1029.497436523438	-923.859069824219	-157.78662109375	998.1285400390627	-791.289978027344	-181.5623931884766	933.4066162109377	-845.5608520507815	-427.0360107421876	746.1370849609376	-853.9407958984377	-119.3324584960938	792.2005615234377	-843.737243652344	-92.50906372070314	840.0323486328127	-1013.610107421875	-204.0709838867188	777.9444580078127	-1181.19580078125	-234.6320037841797	740.2708740234376	-1172.769775390625	-251.9157104492188	758.6425170898439	-1227.690673828125	-305.6373901367188	746.2448120117189	-1270.561279296875	-345.3005065917969	808.3216552734377	-1252.556274414063	-526.2488403320314	657.9948730468751	-1087.886840820313	-507.1423339843751	595.2553710937501	-1124.114501953125	-482.7481079101564	641.5198974609376	-1037.215942382813	-126.0029449462891	828.249938964844	-672.3093261718751	-256.3843688964844	839.0908203125002	-521.4804077148439	-281.1267700195313	796.1148681640627	-513.6515502929689	-307.8655090332032	831.903991699219	-474.6186523437501	-366.3665771484376	807.5555419921877	-436.1523742675782	-418.1004333496095	859.5259399414065	-483.7597656250001	-503.5447692871095	652.5572509765626	-634.2856445312501	-506.8590698242189	598.6750488281251	-579.7156982421876	-448.942840576172	621.6697998046876	-667.3168945312501	nan	nan	nan	-561.3485717773439	655.1884765625001	-858.493591308594	-584.6168823242189	636.0575561523439	-889.4244384765627	-594.8633422851564	634.7550048828126	-836.5271606445315	-392.9878845214845	450.0095214843751	-1098.607055664063	-312.7200012207032	473.287567138672	-1118.591186523438	-300.1170043945313	516.7956542968751	-1106.39892578125	-266.2625427246094	436.9771118164064	-1126.28955078125	-151.5374755859375	425.975311279297	-1142.09130859375	-131.3335571289063	377.7356567382813	-1017.516906738281	-211.284896850586	232.7590026855469	-1114.32568359375	-297.5166015625001	250.6752014160157	-1138.282958984375	-266.7614440917969	218.6387939453126	-1131.168334960938	-301.6339111328126	148.4125213623047	-1103.145263671875	-405.2476196289064	105.6424179077149	-1106.605224609375	-355.2216796875001	98.267448425293	-1032.701293945313	-466.7781066894532	49.44155502319337	-1064.411987304688	-245.5991210937501	56.63780593872072	-1091.682006835938	-257.5980834960938	55.40858078002931	-1136.734985351563	-313.1958618164063	32.92181015014649	-1175.562133789063	-391.2700195312501	471.8727111816407	-624.7534790039064	-327.3229370117188	488.4023437500001	-610.8200073242189	-314.4293212890626	517.9780883789064	-621.7044067382814	-264.9172668457032	433.7220153808595	-594.6112670898439	-174.255599975586	407.6847229003907	-576.3630981445314	-141.5897674560547	387.8266601562501	-710.1240844726564	-216.4745178222657	243.5568084716797	-608.9924316406251	-326.2041015625001	232.5497436523438	-603.9102172851564	-290.6985473632813	201.9668579101563	-608.2726440429689	-302.1285705566407	155.2437744140625	-641.4929809570314	-414.6487731933595	101.3736801147461	-637.0659790039064	-374.7289428710938	98.33047485351565	-718.8162841796876	-475.9784240722657	50.59141921997072	-697.7752075195314	-257.7150268554688	54.24205780029298	-644.3466796875001	-271.9445800781251	57.67928314208986	-607.0400390625001	-325.8165893554688	36.26455307006837	-565.7294921875001	-410.8086547851564	548.3846435546876	-965.2977294921877	nan	nan	nan	nan	nan	nan	nan	nan	nan	
336	1.675	27.671049118042	1066.934936523438	-884.5064697265627	-102.5653076171875	1030.494506835938	-924.1885375976565	-157.9137878417969	998.8665161132815	-791.7241210937502	-181.6782379150391	934.246765136719	-845.8352661132815	-426.9603576660157	746.5700683593751	-854.1549072265627	-119.5075988769532	793.010192871094	-843.972595214844	-92.59922027587892	840.7946777343752	-1013.864685058594	-204.3065643310547	778.524108886719	-1181.33984375	-234.4674377441407	740.7152099609376	-1172.920532226563	-251.9456176757813	759.4029541015626	-1227.998046875	-305.8035278320313	746.9800415039064	-1270.754516601563	-345.5590515136719	808.8758544921877	-1252.687133789063	-526.1955566406251	658.5056762695314	-1087.943603515625	-507.2617492675782	595.8043212890626	-1124.121704101563	-482.7363586425782	642.0217285156251	-1037.221435546875	-126.1319732666016	829.0571289062502	-672.5090942382814	-256.4110412597657	840.0826416015627	-521.3223876953126	-280.5456848144532	796.7319946289065	-513.9164428710939	-307.9573364257813	832.867614746094	-474.393524169922	-366.5020751953126	808.245788574219	-436.0101013183595	-417.834197998047	860.055847167969	-484.0548706054689	-503.102264404297	653.0775146484376	-634.3594970703126	-506.3840942382814	599.0822143554689	-579.6770019531251	-448.6985473632814	622.2172241210939	-667.3333129882814	nan	nan	nan	-561.0772094726564	655.6058349609376	-858.5686645507815	-584.4855346679689	636.5960693359376	-889.4190673828127	-594.8081665039064	635.2935180664064	-836.6230468750002	-393.0404052734376	450.3132934570314	-1098.766845703125	-312.8314514160157	473.4703674316407	-1118.966430664063	-300.2362060546876	517.1314697265626	-1106.760375976563	-266.3489074707032	437.2088623046876	-1126.451904296875	-151.5481262207032	426.0646057128907	-1142.359619140625	-131.4085388183594	377.8063659667969	-1018.008666992188	-211.4562530517579	233.0323486328126	-1114.584716796875	-297.7908630371094	250.7630462646485	-1138.519409179688	-266.8763122558594	218.7458801269532	-1131.35888671875	-301.6647338867188	148.2102813720703	-1103.360717773438	-405.3018188476564	105.6986389160157	-1106.66259765625	-355.2026672363282	98.33022308349612	-1032.783447265625	-466.7557983398439	49.41171646118165	-1064.421508789063	-245.4832916259766	56.61137771606447	-1091.721435546875	-257.5428161621094	55.44558334350587	-1136.731323242188	-313.1327209472657	32.86498260498048	-1175.582763671875	-390.7893981933595	472.2424621582032	-624.8521118164064	-327.1059875488282	488.6067504882814	-610.9099731445314	-314.1587219238282	518.1778564453126	-621.9252319335939	-264.6991271972657	433.8076477050782	-594.7785644531251	-174.0697784423828	407.5388488769532	-576.6861572265626	-141.3343811035157	387.7944946289064	-710.6636962890626	-216.4403076171876	243.5830383300782	-609.1398925781251	-325.9230346679688	232.773910522461	-604.2094726562501	-290.6713256835938	201.9915008544922	-608.3425292968751	-301.9804077148438	155.1467590332032	-641.6316528320314	-414.5286254882814	101.3370056152344	-637.1858520507814	-374.6944885253907	98.30220794677737	-718.9083251953126	-475.9342041015626	50.65430068969728	-697.8138427734376	-257.6260070800782	54.22367095947267	-644.3198852539064	-271.9609375000001	57.6908645629883	-607.1809692382814	-325.7862243652344	36.30676651000977	-565.7621459960939	-410.8890380859376	548.8845825195314	-965.3233642578127	nan	nan	nan	nan	nan	nan	nan	nan	nan	
